{
.appVersion = "1252";
copyright = "Copyright 2017 Google Inc. All Rights Reserved.";
customParameters = (
{
name = glyphOrder;
value = (
.notdef,
NULL,
CR,
space,
uni00A0,
u10300,
u10301,
u10302,
u10303,
u10304,
u10305,
u10306,
u10307,
u10308,
u10309,
u1030A,
u1030B,
u1030C,
u1030D,
u1030E,
u1030F,
u10310,
u10311,
u10312,
u10313,
u10314,
u10315,
u10316,
u10317,
u10318,
u10319,
u1031A,
u1031B,
u1031C,
u1031D,
u1031E,
u1031F,
u10320,
u10321,
u10322,
u10323,
u10300_r,
u10301_r,
u10302_r,
u10303_r,
u10304_r,
u10305_r,
u10306_r,
u1030A_r,
u1030B_r,
u1030C_r,
u1030D_r,
u10310_r,
u10313_r,
u10314_r,
u10315_r,
u1031B_r,
u1031C_r,
u1031D_r,
u1032D_r,
u1032E_r,
u1032F_r,
u1032D,
u1032E,
u1032F
);
},
{
name = description;
value = "Designed by Monotype design team.";
},
{
name = license;
value = "This Font Software is licensed under the SIL Open Font License, Version 1.1. This Font Software is distributed on an \"AS IS\" BASIS, WITHOUT WARRANTIES OR CONDITIONS OF ANY KIND, either express or implied. See the SIL Open Font License for the specific language, permissions and limitations governing your use of this Font Software.";
},
{
name = licenseURL;
value = "http://scripts.sil.org/OFL";
},
{
name = vendorID;
value = GOOG;
},
{
name = unicodeRanges;
value = (
0,
1,
57,
85
);
},
{
name = trademark;
value = "Noto is a trademark of Google Inc.";
},
{
name = "Has WWS Names";
value = 1;
},
{
name = versionString;
value = "Version 2.002";
},
{
name = fsType;
value = (
);
},
{
name = codePageRanges;
value = (
1252
);
}
);
date = "2017-06-22 15:41:00 +0000";
designer = "Monotype Design Team";
designerURL = "http://www.monotype.com/studio";
disablesAutomaticAlignment = 1;
disablesNiceNames = 1;
familyName = "Noto Sans Old Italic";
fontMaster = (
{
alignmentZones = (
"{1069, 15}",
"{714, 15}",
"{536, 15}",
"{0, -15}",
"{-293, -15}"
);
ascender = 1069;
capHeight = 714;
customParameters = (
{
name = typoAscender;
value = 1069;
},
{
name = typoDescender;
value = -293;
},
{

glyphs = (
{
glyphname = .notdef;
lastChange = "2019-08-07 21:01:33 +0000";
layers = (
{
layerId = UUID0;
paths = (
{
closed = 1;
nodes = (
"505 0 LINE",
"505 714 LINE",
"94 714 LINE",
"94 0 LINE"
);
},
{
closed = 1;
nodes = (
"145 663 LINE",
"454 663 LINE",
"454 51 LINE",
"145 51 LINE"
);
}
);
width = 600;
}
);
},
{
glyphname = u10300;
lastChange = "2019-08-07 21:01:33 +0000";
layers = (
{
layerId = UUID0;
paths = (
{
closed = 1;
nodes = (
"691 7 LINE",
"599 430 OFFCURVE",
"549 527 OFFCURVE",
"166 718 CURVE",
"117 703 LINE",
"117 0 LINE",
"197 0 LINE",
"494 362 LINE",
"532 291 OFFCURVE",
"564 172 OFFCURVE",
"602 -7 CURVE"
);
},
{
closed = 1;
nodes = (
"206 608 LINE",
"305 551 OFFCURVE",
"381 503 OFFCURVE",
"440 437 CURVE",
"206 142 LINE"
);
}
);
width = 718;
}
);
unicode = 10300;
},
{
glyphname = u10301;
lastChange = "2019-08-07 21:01:33 +0000";
layers = (
{
layerId = UUID0;
paths = (
{
closed = 1;
nodes = (
"433 32 OFFCURVE",
"557 112 OFFCURVE",
"557 170 CURVE SMOOTH",
"557 227 OFFCURVE",
"502 286 OFFCURVE",
"340 365 CURVE",
"469 424 OFFCURVE",
"543 470 OFFCURVE",
"543 524 CURVE SMOOTH",
"543 597 OFFCURVE",
"390 683 OFFCURVE",
"170 728 CURVE",
"117 707 LINE",
"117 8 LINE",
"173 -16 LINE"
);
},
{
closed = 1;
nodes = (
"207 350 LINE",
"397 265 OFFCURVE",
"452 210 OFFCURVE",
"452 183 CURVE SMOOTH",
"452 157 OFFCURVE",
"357 110 OFFCURVE",
"207 75 CURVE"
);
},
{
closed = 1;
nodes = (
"207 641 LINE",
"326 611 OFFCURVE",
"441 563 OFFCURVE",
"441 524 CURVE SMOOTH",
"441 485 OFFCURVE",
"301 421 OFFCURVE",
"207 381 CURVE"
);
}
);
width = 627;
}
);
unicode = 10301;
},
{
glyphname = u10302;
lastChange = "2019-08-07 21:01:33 +0000";
layers = (
{
layerId = UUID0;
paths = (
{
closed = 1;
nodes = (
"487 53 LINE",
"263 143 OFFCURVE",
"157 287 OFFCURVE",
"157 362 CURVE SMOOTH",
"157 430 OFFCURVE",
"247 569 OFFCURVE",
"485 655 CURVE",
"445 732 LINE",
"195 649 OFFCURVE",
"59 486 OFFCURVE",
"59 365 CURVE SMOOTH",
"59 239 OFFCURVE",
"215 68 OFFCURVE",
"449 -22 CURVE"
);
}
);
width = 525;
}
);
unicode = 10302;
},
{
glyphname = u10303;
lastChange = "2019-08-07 21:01:33 +0000";
layers = (
{
layerId = UUID0;
paths = (
{
closed = 1;
nodes = (
"507 126 OFFCURVE",
"621 280 OFFCURVE",
"621 357 CURVE SMOOTH",
"621 454 OFFCURVE",
"461 610 OFFCURVE",
"170 724 CURVE",
"117 712 LINE",
"117 12 LINE",
"168 -6 LINE"
);
},
{
closed = 1;
nodes = (
"207 618 LINE",
"375 553 OFFCURVE",
"522 431 OFFCURVE",
"522 357 CURVE SMOOTH",
"522 304 OFFCURVE",
"431 191 OFFCURVE",
"207 99 CURVE"
);
}
);
width = 676;
}
);
unicode = 10303;
},
{
glyphname = u10304;
lastChange = "2019-08-07 21:01:33 +0000";
layers = (
{
layerId = UUID0;
paths = (
{
closed = 1;
nodes = (
"534 61 LINE",
"207 226 LINE",
"207 378 LINE",
"478 262 LINE",
"510 336 LINE",
"207 463 LINE",
"207 621 LINE",
"475 518 LINE",
"505 594 LINE",
"154 723 LINE",
"117 711 LINE",
"117 0 LINE",
"207 0 LINE",
"207 136 LINE",
"495 -12 LINE"
);
}
);
width = 575;
}
);
unicode = 10304;
},
{
glyphname = u10305;
lastChange = "2019-08-07 21:01:33 +0000";
layers = (
{
layerId = UUID0;
paths = (
{
closed = 1;
nodes = (
"207 295 LINE",
"485 175 LINE",
"521 254 LINE",
"207 385 LINE",
"207 612 LINE",
"471 496 LINE",
"508 575 LINE",
"153 725 LINE",
"117 713 LINE",
"117 0 LINE",
"207 0 LINE"
);
}
);
width = 568;
}
);
unicode = 10305;
},
{
glyphname = u10306;
lastChange = "2019-08-07 21:01:33 +0000";
layers = (
{
layerId = UUID0;
paths = (
{
closed = 1;
nodes = (
"339 140 LINE",
"510 80 LINE",
"538 156 LINE",
"339 226 LINE",
"339 468 LINE",
"510 405 LINE",
"538 481 LINE",
"339 551 LINE",
"339 715 LINE",
"249 715 LINE",
"249 583 LINE",
"75 645 LINE",
"47 569 LINE",
"249 499 LINE",
"249 257 LINE",
"75 320 LINE",
"47 244 LINE",
"249 172 LINE",
"249 0 LINE",
"339 0 LINE"
);
}
);
width = 585;
}
);
unicode = 10306;
},
{
glyphname = u10307;
lastChange = "2019-08-07 21:01:33 +0000";
layers = (
{
layerId = UUID0;
paths = (
{
closed = 1;
nodes = (
"683 40 LINE",
"683 674 LINE",
"117 674 LINE",
"117 40 LINE"
);
},
{
closed = 1;
nodes = (
"204 318 LINE",
"596 318 LINE",
"596 119 LINE",
"204 119 LINE"
);
},
{
closed = 1;
nodes = (
"204 595 LINE",
"596 595 LINE",
"596 397 LINE",
"204 397 LINE"
);
}
);
width = 800;
}
);
unicode = 10307;
},
{
glyphname = u10308;
lastChange = "2019-08-07 21:01:33 +0000";
layers = (
{
layerId = UUID0;
paths = (
{
closed = 1;
nodes = (
"597 32 OFFCURVE",
"736 174 OFFCURVE",
"736 362 CURVE SMOOTH",
"736 570 OFFCURVE",
"574 687 OFFCURVE",
"404 687 CURVE SMOOTH",
"224 687 OFFCURVE",
"71 570 OFFCURVE",
"71 362 CURVE SMOOTH",
"71 174 OFFCURVE",
"210 32 OFFCURVE",
"402 32 CURVE SMOOTH"
);
},
{
closed = 1;
nodes = (
"345 108 OFFCURVE",
"296 123 OFFCURVE",
"257 150 CURVE",
"402 308 LINE",
"546 148 LINE",
"507 122 OFFCURVE",
"459 108 OFFCURVE",
"403 108 CURVE SMOOTH"
);
},
{
closed = 1;
nodes = (
"172 243 OFFCURVE",
"154 297 OFFCURVE",
"154 362 CURVE SMOOTH",
"154 428 OFFCURVE",
"172 482 OFFCURVE",
"203 524 CURVE",
"349 364 LINE",
"201 201 LINE"
);
},
{
closed = 1;
nodes = (
"451 364 LINE",
"601 526 LINE",
"633 484 OFFCURVE",
"653 429 OFFCURVE",
"653 362 CURVE SMOOTH",
"653 296 OFFCURVE",
"634 241 OFFCURVE",
"603 200 CURVE"
);
},
{
closed = 1;
nodes = (
"260 574 LINE",
"298 599 OFFCURVE",
"345 613 OFFCURVE",
"402 613 CURVE SMOOTH",
"457 613 OFFCURVE",
"505 599 OFFCURVE",
"543 575 CURVE",
"402 420 LINE"
);
}
);
width = 807;
}
);
unicode = 10308;
},
{
glyphname = u10309;
lastChange = "2019-08-07 21:01:33 +0000";
layers = (
{
layerId = UUID0;
paths = (
{
closed = 1;
nodes = (
"207 0 LINE",
"207 714 LINE",
"117 714 LINE",
"117 0 LINE"
);
}
);
width = 324;
}
);
unicode = 10309;
},
{
glyphname = u1030A;
lastChange = "2019-08-07 21:01:33 +0000";
layers = (
{
layerId = UUID0;
paths = (
{
closed = 1;
nodes = (
"207 365 LINE",
"533 50 LINE",
"599 115 LINE",
"324 378 LINE",
"603 609 LINE",
"545 675 LINE",
"207 386 LINE",
"207 714 LINE",
"117 714 LINE",
"117 0 LINE",
"207 0 LINE"
);
}
);
width = 651;
}
);
unicode = 1030A;
},
{
glyphname = u1030B;
lastChange = "2019-08-07 21:01:33 +0000";
layers = (
{
layerId = UUID0;
paths = (
{
closed = 1;
nodes = (
"530 146 LINE",
"489 226 LINE",
"207 100 LINE",
"207 714 LINE",
"117 714 LINE",
"117 7 LINE",
"158 -10 LINE"
);
}
);
width = 567;
}
);
unicode = 1030B;
},
{
glyphname = u1030C;
lastChange = "2019-08-07 21:01:33 +0000";
layers = (
{
layerId = UUID0;
paths = (
{
closed = 1;
nodes = (
"271 567 LINE",
"424 240 LINE",
"497 240 LINE",
"641 574 LINE",
"741 313 LINE",
"824 340 LINE",
"683 694 LINE",
"600 694 LINE",
"458 357 LINE",
"298 694 LINE",
"208 694 LINE",
"58 8 LINE",
"146 -11 LINE"
);
}
);
width = 864;
}
);
unicode = 1030C;
},
{
glyphname = u1030D;
lastChange = "2019-08-07 21:01:33 +0000";
layers = (
{
layerId = UUID0;
paths = (
{
closed = 1;
nodes = (
"264 566 LINE",
"451 240 LINE",
"528 240 LINE",
"688 675 LINE",
"602 703 LINE",
"477 355 LINE",
"283 694 LINE",
"198 694 LINE",
"58 10 LINE",
"147 -10 LINE"
);
}
);
width = 728;
}
);
unicode = 1030D;
},
{
glyphname = u1030E;
lastChange = "2019-08-07 21:01:33 +0000";
layers = (
{
layerId = UUID0;
paths = (
{
closed = 1;
nodes = (
"743 40 LINE",
"743 674 LINE",
"117 674 LINE",
"117 40 LINE"
);
},
{
closed = 1;
nodes = (
"201 319 LINE",
"388 319 LINE",
"388 117 LINE",
"201 117 LINE"
);
},
{
closed = 1;
nodes = (
"472 319 LINE",
"659 319 LINE",
"659 117 LINE",
"472 117 LINE"
);
},
{
closed = 1;
nodes = (
"201 597 LINE",
"388 597 LINE",
"388 396 LINE",
"201 396 LINE"
);
},
{
closed = 1;
nodes = (
"472 597 LINE",
"659 597 LINE",
"659 396 LINE",
"472 396 LINE"
);
}
);
width = 860;
}
);
unicode = 1030E;
},
{
glyphname = u1030F;
lastChange = "2019-08-07 21:01:33 +0000";
layers = (
{
layerId = UUID0;
paths = (
{
closed = 1;
nodes = (
"575 27 OFFCURVE",
"737 159 OFFCURVE",
"737 359 CURVE SMOOTH",
"737 559 OFFCURVE",
"575 689 OFFCURVE",
"405 689 CURVE SMOOTH",
"225 689 OFFCURVE",
"70 554 OFFCURVE",
"70 360 CURVE SMOOTH",
"70 160 OFFCURVE",
"225 27 OFFCURVE",
"404 27 CURVE SMOOTH"
);
},
{
closed = 1;
nodes = (
"270 108 OFFCURVE",
"161 211 OFFCURVE",
"161 359 CURVE SMOOTH",
"161 506 OFFCURVE",
"270 609 OFFCURVE",
"405 609 CURVE SMOOTH",
"539 609 OFFCURVE",
"645 506 OFFCURVE",
"645 359 CURVE SMOOTH",
"645 211 OFFCURVE",
"539 108 OFFCURVE",
"404 108 CURVE SMOOTH"
);
}
);
width = 807;
}
);
unicode = 1030F;
},
{
glyphname = u10310;
lastChange = "2019-08-07 21:01:33 +0000";
layers = (
{
layerId = UUID0;
paths = (
{
closed = 1;
nodes = (
"207 604 LINE",
"492 604 LINE",
"492 365 LINE",
"582 365 LINE",
"582 684 LINE",
"117 684 LINE",
"117 0 LINE",
"207 0 LINE"
);
}
);
width = 660;
}
);
unicode = 10310;
},
{
glyphname = u10311;
lastChange = "2019-08-07 21:01:33 +0000";
layers = (
{
layerId = UUID0;
paths = (
{
closed = 1;
nodes = (
"193 0 LINE",
"193 584 LINE",
"383 419 LINE",
"574 584 LINE",
"574 0 LINE",
"663 0 LINE",
"663 710 LINE",
"616 720 LINE",
"384 525 LINE",
"157 720 LINE",
"110 710 LINE",
"110 0 LINE"
);
}
);
width = 773;
}
);
unicode = 10311;
},
{
glyphname = u10312;
lastChange = "2019-08-07 21:01:33 +0000";
layers = (
{
layerId = UUID0;
paths = (
{
closed = 1;
nodes = (
"398 -50 LINE",
"398 142 LINE",
"528 160 OFFCURVE",
"647 260 OFFCURVE",
"647 420 CURVE SMOOTH",
"647 597 OFFCURVE",
"500 695 OFFCURVE",
"355 695 CURVE SMOOTH",
"201 695 OFFCURVE",
"61 589 OFFCURVE",
"61 420 CURVE SMOOTH",
"61 260 OFFCURVE",
"181 161 OFFCURVE",
"308 142 CURVE",
"308 -50 LINE"
);
},
{
closed = 1;
nodes = (
"245 212 OFFCURVE",
"152 293 OFFCURVE",
"152 420 CURVE SMOOTH",
"152 547 OFFCURVE",
"244 621 OFFCURVE",
"353 621 CURVE SMOOTH",
"462 621 OFFCURVE",
"556 547 OFFCURVE",
"556 420 CURVE SMOOTH",
"556 293 OFFCURVE",
"462 212 OFFCURVE",
"354 212 CURVE SMOOTH"
);
}
);
width = 708;
}
);
unicode = 10312;
},
{
glyphname = u10313;
lastChange = "2019-08-07 21:01:33 +0000";
layers = (
{
layerId = UUID0;
paths = (
{
closed = 1;
nodes = (
"207 142 LINE",
"463 241 OFFCURVE",
"543 333 OFFCURVE",
"543 430 CURVE SMOOTH",
"543 518 OFFCURVE",
"429 629 OFFCURVE",
"170 723 CURVE",
"117 704 LINE",
"117 0 LINE",
"207 0 LINE"
);
},
{
closed = 1;
nodes = (
"207 624 LINE",
"372 553 OFFCURVE",
"445 481 OFFCURVE",
"445 423 CURVE SMOOTH",
"445 369 OFFCURVE",
"389 303 OFFCURVE",
"207 226 CURVE"
);
}
);
width = 595;
}
);
unicode = 10313;
},
{
glyphname = u10314;
lastChange = "2019-08-07 21:01:33 +0000";
layers = (
{
layerId = UUID0;
paths = (
{
closed = 1;
nodes = (
"348 48 OFFCURVE",
"435 121 OFFCURVE",
"435 192 CURVE SMOOTH",
"435 319 OFFCURVE",
"173 439 OFFCURVE",
"173 517 CURVE SMOOTH",
"173 554 OFFCURVE",
"281 614 OFFCURVE",
"428 661 CURVE",
"396 738 LINE",
"201 678 OFFCURVE",
"74 596 OFFCURVE",
"74 522 CURVE SMOOTH",
"74 394 OFFCURVE",
"341 282 OFFCURVE",
"341 196 CURVE SMOOTH",
"341 165 OFFCURVE",
"251 97 OFFCURVE",
"81 43 CURVE",
"113 -35 LINE"
);
}
);
width = 510;
}
);
unicode = 10314;
},
{
glyphname = u10315;
lastChange = "2019-08-07 21:01:33 +0000";
layers = (
{
layerId = UUID0;
paths = (
{
closed = 1;
nodes = (
"359 424 LINE",
"604 496 LINE",
"578 576 LINE",
"359 513 LINE",
"359 714 LINE",
"269 714 LINE",
"269 488 LINE",
"23 419 LINE",
"49 340 LINE",
"269 402 LINE",
"269 0 LINE",
"359 0 LINE"
);
}
);
width = 627;
}
);
unicode = 10315;
},
{
glyphname = u10316;
lastChange = "2019-08-07 21:01:33 +0000";
layers = (
{
layerId = UUID0;
paths = (
{
closed = 1;
nodes = (
"376 39 LINE",
"663 659 LINE",
"578 689 LINE",
"333 145 LINE",
"98 689 LINE",
"13 659 LINE",
"290 39 LINE"
);
}
);
width = 676;
}
);
unicode = 10316;
},
{
glyphname = u10317;
lastChange = "2019-08-07 21:01:33 +0000";
layers = (
{
layerId = UUID0;
paths = (
{
closed = 1;
nodes = (
"317 305 LINE",
"526 20 LINE",
"608 60 LINE",
"371 369 LINE",
"591 654 LINE",
"516 694 LINE",
"320 429 LINE",
"125 694 LINE",
"45 654 LINE",
"266 367 LINE",
"30 60 LINE",
"105 20 LINE"
);
}
);
width = 638;
}
);
unicode = 10317;
},
{
glyphname = u10318;
lastChange = "2019-08-07 21:01:33 +0000";
layers = (
{
layerId = UUID0;
paths = (
{
closed = 1;
nodes = (
"418 -50 LINE",
"418 156 LINE",
"587 172 OFFCURVE",
"681 296 OFFCURVE",
"681 426 CURVE SMOOTH",
"681 569 OFFCURVE",
"578 695 OFFCURVE",
"374 695 CURVE SMOOTH",
"203 695 OFFCURVE",
"65 589 OFFCURVE",
"65 426 CURVE SMOOTH",
"65 305 OFFCURVE",
"146 172 OFFCURVE",
"332 156 CURVE",
"332 -50 LINE"
);
},
{
closed = 1;
nodes = (
"230 244 OFFCURVE",
"157 316 OFFCURVE",
"157 426 CURVE SMOOTH",
"157 537 OFFCURVE",
"229 606 OFFCURVE",
"332 618 CURVE",
"332 230 LINE"
);
},
{
closed = 1;
nodes = (
"418 617 LINE",
"516 604 OFFCURVE",
"590 536 OFFCURVE",
"590 426 CURVE SMOOTH",
"590 316 OFFCURVE",
"517 244 OFFCURVE",
"418 230 CURVE"
);
}
);
width = 746;
}
);
unicode = 10318;
},
{
glyphname = u10319;
lastChange = "2019-08-07 21:01:33 +0000";
layers = (
{
layerId = UUID0;
paths = (
{
closed = 1;
nodes = (
"404 0 LINE",
"404 217 LINE",
"698 547 LINE",
"632 603 LINE",
"404 335 LINE",
"404 714 LINE",
"314 714 LINE",
"314 335 LINE",
"82 607 LINE",
"13 550 LINE",
"314 217 LINE",
"314 0 LINE"
);
}
);
width = 711;
}
);
unicode = 10319;
},
{
glyphname = u1031A;
lastChange = "2019-08-07 21:01:33 +0000";
layers = (
{
layerId = UUID0;
paths = (
{
closed = 1;
nodes = (
"473 -10 OFFCURVE",
"578 76 OFFCURVE",
"578 187 CURVE SMOOTH",
"578 276 OFFCURVE",
"520 331 OFFCURVE",
"436 361 CURVE",
"520 397 OFFCURVE",
"565 464 OFFCURVE",
"565 528 CURVE SMOOTH",
"565 624 OFFCURVE",
"479 724 OFFCURVE",
"326 724 CURVE SMOOTH",
"189 724 OFFCURVE",
"86 630 OFFCURVE",
"86 523 CURVE SMOOTH",
"86 463 OFFCURVE",
"129 390 OFFCURVE",
"214 359 CURVE",
"123 324 OFFCURVE",
"75 260 OFFCURVE",
"75 184 CURVE SMOOTH",
"75 71 OFFCURVE",
"181 -10 OFFCURVE",
"328 -10 CURVE SMOOTH"
);
},
{
closed = 1;
nodes = (
"238 67 OFFCURVE",
"166 120 OFFCURVE",
"166 191 CURVE SMOOTH",
"166 268 OFFCURVE",
"241 322 OFFCURVE",
"321 322 CURVE SMOOTH",
"413 322 OFFCURVE",
"487 270 OFFCURVE",
"487 201 CURVE SMOOTH",
"487 117 OFFCURVE",
"413 67 OFFCURVE",
"326 67 CURVE SMOOTH"
);
},
{
closed = 1;
nodes = (
"245 398 OFFCURVE",
"179 453 OFFCURVE",
"179 520 CURVE SMOOTH",
"179 581 OFFCURVE",
"236 645 OFFCURVE",
"324 645 CURVE SMOOTH",
"413 645 OFFCURVE",
"471 582 OFFCURVE",
"471 520 CURVE SMOOTH",
"471 450 OFFCURVE",
"408 398 OFFCURVE",
"328 398 CURVE SMOOTH"
);
}
);
width = 653;
}
);
unicode = 1031A;
},
{
glyphname = u1031B;
lastChange = "2019-08-07 21:01:33 +0000";
layers = (
{
layerId = UUID0;
paths = (
{
closed = 1;
nodes = (
"207 276 LINE",
"485 350 OFFCURVE",
"563 434 OFFCURVE",
"563 500 CURVE SMOOTH",
"563 570 OFFCURVE",
"463 650 OFFCURVE",
"170 723 CURVE",
"117 704 LINE",
"117 0 LINE",
"207 0 LINE"
);
},
{
closed = 1;
nodes = (
"207 633 LINE",
"402 579 OFFCURVE",
"460 528 OFFCURVE",
"460 494 CURVE SMOOTH",
"460 463 OFFCURVE",
"411 415 OFFCURVE",
"207 358 CURVE"
);
}
);
width = 605;
}
);
unicode = 1031B;
},
{
glyphname = u1031C;
lastChange = "2019-08-07 21:01:33 +0000";
layers = (
{
layerId = UUID0;
paths = (
{
closed = 1;
nodes = (
"207 714 LINE",
"117 714 LINE",
"117 10 LINE",
"170 -9 LINE",
"485 67 OFFCURVE",
"563 158 OFFCURVE",
"563 224 CURVE SMOOTH",
"563 291 OFFCURVE",
"471 367 OFFCURVE",
"207 437 CURVE"
);
},
{
closed = 1;
nodes = (
"207 357 LINE",
"402 303 OFFCURVE",
"460 252 OFFCURVE",
"460 218 CURVE SMOOTH",
"460 187 OFFCURVE",
"411 139 OFFCURVE",
"207 82 CURVE"
);
}
);
width = 605;
}
);
unicode = 1031C;
},
{
glyphname = u1031D;
lastChange = "2019-08-07 21:01:33 +0000";
layers = (
{
layerId = UUID0;
paths = (
{
closed = 1;
nodes = (
"375 714 LINE",
"285 714 LINE",
"285 395 LINE",
"45 395 LINE",
"45 316 LINE",
"285 316 LINE",
"285 0 LINE",
"375 0 LINE"
);
}
);
width = 492;
}
);
unicode = 1031D;
},
{
glyphname = u1031E;
lastChange = "2019-08-07 21:01:33 +0000";
layers = (
{
layerId = UUID0;
paths = (
{
closed = 1;
nodes = (
"376 49 LINE",
"663 669 LINE",
"578 699 LINE",
"333 155 LINE",
"98 699 LINE",
"13 669 LINE",
"290 49 LINE"
);
},
{
closed = 1;
nodes = (
"364 589 OFFCURVE",
"388 607 OFFCURVE",
"388 645 CURVE SMOOTH",
"388 684 OFFCURVE",
"364 701 OFFCURVE",
"337 701 CURVE SMOOTH",
"308 701 OFFCURVE",
"285 684 OFFCURVE",
"285 645 CURVE SMOOTH",
"285 607 OFFCURVE",
"308 589 OFFCURVE",
"337 589 CURVE SMOOTH"
);
}
);
width = 676;
}
);
unicode = 1031E;
},
{
glyphname = u1031F;
lastChange = "2019-08-07 21:01:33 +0000";
layers = (
{
layerId = UUID0;
paths = (
{
closed = 1;
nodes = (
"364 0 LINE",
"364 259 LINE",
"542 82 LINE",
"598 138 LINE",
"375 360 LINE",
"598 583 LINE",
"542 639 LINE",
"364 461 LINE",
"364 714 LINE",
"274 714 LINE",
"274 461 LINE",
"96 639 LINE",
"40 583 LINE",
"263 360 LINE",
"40 138 LINE",
"96 82 LINE",
"274 259 LINE",
"274 0 LINE"
);
}
);
width = 638;
}
);
unicode = 1031F;
},
{
glyphname = u10320;
lastChange = "2019-08-07 21:01:33 +0000";
layers = (
{
layerId = UUID0;
paths = (
{
closed = 1;
nodes = (
"220 0 LINE",
"220 714 LINE",
"130 714 LINE",
"130 0 LINE"
);
}
);
width = 350;
}
);
unicode = 10320;
},
{
glyphname = u10321;
lastChange = "2019-08-07 21:01:33 +0000";
layers = (
{
layerId = UUID0;
paths = (
{
closed = 1;
nodes = (
"343 573 LINE",
"578 29 LINE",
"663 59 LINE",
"386 679 LINE",
"300 679 LINE",
"13 59 LINE",
"98 29 LINE"
);
}
);
width = 676;
}
);
unicode = 10321;
},
{
glyphname = u10322;
lastChange = "2019-08-07 21:01:33 +0000";
layers = (
{
layerId = UUID0;
paths = (
{
closed = 1;
nodes = (
"317 305 LINE",
"526 20 LINE",
"608 60 LINE",
"371 369 LINE",
"591 654 LINE",
"516 694 LINE",
"320 429 LINE",
"125 694 LINE",
"45 654 LINE",
"266 367 LINE",
"30 60 LINE",
"105 20 LINE"
);
}
);
width = 638;
}
);
unicode = 10322;
},
{
glyphname = u10323;
lastChange = "2019-08-07 21:01:33 +0000";
layers = (
{
layerId = UUID0;
paths = (
{
closed = 1;
nodes = (
"347 0 LINE",
"347 611 LINE",
"537 473 LINE",
"581 537 LINE",
"302 739 LINE",
"23 537 LINE",
"67 473 LINE",
"257 611 LINE",
"257 0 LINE"
);
}
);
width = 604;
}
);
unicode = 10323;
},
{
glyphname = u10300_r;
lastChange = "2019-08-07 21:01:33 +0000";
layers = (
{
layerId = UUID0;
paths = (
{
closed = 1;
nodes = (
"154 172 OFFCURVE",
"186 291 OFFCURVE",
"224 362 CURVE",
"521 0 LINE",
"601 0 LINE",
"601 703 LINE",
"552 718 LINE",
"169 527 OFFCURVE",
"119 430 OFFCURVE",
"27 7 CURVE",
"116 -7 LINE"
);
},
{
closed = 1;
nodes = (
"278 437 LINE",
"337 503 OFFCURVE",
"413 551 OFFCURVE",
"512 608 CURVE",
"512 142 LINE"
);
}
);
width = 718;
}
);
},
{
glyphname = u10301_r;
lastChange = "2019-08-07 21:01:33 +0000";
layers = (
{
layerId = UUID0;
paths = (
{
closed = 1;
nodes = (
"510 8 LINE",
"510 707 LINE",
"457 728 LINE",
"237 683 OFFCURVE",
"84 597 OFFCURVE",
"84 524 CURVE SMOOTH",
"84 470 OFFCURVE",
"158 424 OFFCURVE",
"287 365 CURVE",
"125 286 OFFCURVE",
"70 227 OFFCURVE",
"70 170 CURVE SMOOTH",
"70 112 OFFCURVE",
"194 32 OFFCURVE",
"454 -16 CURVE"
);
},
{
closed = 1;
nodes = (
"270 110 OFFCURVE",
"175 157 OFFCURVE",
"175 183 CURVE SMOOTH",
"175 210 OFFCURVE",
"230 265 OFFCURVE",
"420 350 CURVE",
"420 75 LINE"
);
},
{
closed = 1;
nodes = (
"326 421 OFFCURVE",
"186 485 OFFCURVE",
"186 524 CURVE SMOOTH",
"186 563 OFFCURVE",
"301 611 OFFCURVE",
"420 641 CURVE",
"420 381 LINE"
);
}
);
width = 627;
}
);
},
{
glyphname = u10302_r;
lastChange = "2019-08-07 21:01:33 +0000";
layers = (
{
layerId = UUID0;
paths = (
{
closed = 1;
nodes = (
"310 68 OFFCURVE",
"466 239 OFFCURVE",
"466 365 CURVE SMOOTH",
"466 486 OFFCURVE",
"330 649 OFFCURVE",
"80 732 CURVE",
"40 655 LINE",
"278 569 OFFCURVE",
"368 430 OFFCURVE",
"368 362 CURVE SMOOTH",
"368 287 OFFCURVE",
"262 143 OFFCURVE",
"38 53 CURVE",
"76 -22 LINE"
);
}
);
width = 525;
}
);
},
{
glyphname = u10303_r;
lastChange = "2019-08-07 21:01:33 +0000";
layers = (
{
layerId = UUID0;
paths = (
{
closed = 1;
nodes = (
"559 12 LINE",
"559 712 LINE",
"506 724 LINE",
"215 610 OFFCURVE",
"55 454 OFFCURVE",
"55 357 CURVE SMOOTH",
"55 280 OFFCURVE",
"169 126 OFFCURVE",
"508 -6 CURVE"
);
},
{
closed = 1;
nodes = (
"245 191 OFFCURVE",
"154 304 OFFCURVE",
"154 357 CURVE SMOOTH",
"154 431 OFFCURVE",
"301 553 OFFCURVE",
"469 618 CURVE",
"469 99 LINE"
);
}
);
width = 676;
}
);
},
{
glyphname = u10304_r;
lastChange = "2019-08-07 21:01:33 +0000";
layers = (
{
layerId = UUID0;
paths = (
{
closed = 1;
nodes = (
"368 136 LINE",
"368 0 LINE",
"458 0 LINE",
"458 711 LINE",
"421 723 LINE",
"70 594 LINE",
"100 518 LINE",
"368 621 LINE",
"368 463 LINE",
"65 336 LINE",
"97 262 LINE",
"368 378 LINE",
"368 226 LINE",
"41 61 LINE",
"80 -12 LINE"
);
}
);
width = 575;
}
);
},
{
glyphname = u10305_r;
lastChange = "2019-08-07 21:01:33 +0000";
layers = (
{
layerId = UUID0;
paths = (
{
closed = 1;
nodes = (
"451 0 LINE",
"451 713 LINE",
"415 725 LINE",
"60 575 LINE",
"97 496 LINE",
"361 612 LINE",
"361 385 LINE",
"47 254 LINE",
"83 175 LINE",
"361 295 LINE",
"361 0 LINE"
);
}
);
width = 568;
}
);
},
{
glyphname = u10306_r;
lastChange = "2019-08-07 21:01:33 +0000";
layers = (
{
layerId = UUID0;
paths = (
{
closed = 1;
nodes = (
"336 0 LINE",
"336 172 LINE",
"538 244 LINE",
"510 320 LINE",
"336 257 LINE",
"336 499 LINE",
"538 569 LINE",
"510 645 LINE",
"336 583 LINE",
"336 715 LINE",
"246 715 LINE",
"246 551 LINE",
"47 481 LINE",
"75 405 LINE",
"246 468 LINE",
"246 226 LINE",
"47 156 LINE",
"75 80 LINE",
"246 140 LINE",
"246 0 LINE"
);
}
);
width = 585;
}
);
},
{
glyphname = u1030A_r;
lastChange = "2019-08-07 21:01:33 +0000";
layers = (
{
layerId = UUID0;
paths = (
{
closed = 1;
nodes = (
"534 0 LINE",
"534 714 LINE",
"444 714 LINE",
"444 386 LINE",
"106 675 LINE",
"48 609 LINE",
"327 378 LINE",
"52 115 LINE",
"118 50 LINE",
"444 365 LINE",
"444 0 LINE"
);
}
);
width = 651;
}
);
},
{
glyphname = u1030B_r;
lastChange = "2019-08-07 21:01:33 +0000";
layers = (
{
layerId = UUID0;
paths = (
{
closed = 1;
nodes = (
"450 7 LINE",
"450 714 LINE",
"360 714 LINE",
"360 100 LINE",
"78 226 LINE",
"37 146 LINE",
"409 -10 LINE"
);
}
);
width = 567;
}
);
},
{
glyphname = u1030C_r;
lastChange = "2019-08-07 21:01:33 +0000";
layers = (
{
layerId = UUID0;
paths = (
{
closed = 1;
nodes = (
"806 8 LINE",
"656 694 LINE",
"566 694 LINE",
"406 357 LINE",
"264 694 LINE",
"181 694 LINE",
"40 340 LINE",
"123 313 LINE",
"223 574 LINE",
"367 240 LINE",
"440 240 LINE",
"593 567 LINE",
"718 -11 LINE"
);
}
);
width = 864;
}
);
},
{
glyphname = u1030D_r;
lastChange = "2019-08-07 21:01:33 +0000";
layers = (
{
layerId = UUID0;
paths = (
{
closed = 1;
nodes = (
"670 10 LINE",
"530 694 LINE",
"445 694 LINE",
"251 355 LINE",
"126 703 LINE",
"40 675 LINE",
"200 240 LINE",
"277 240 LINE",
"464 566 LINE",
"581 -10 LINE"
);
}
);
width = 728;
}
);
},
{
glyphname = u10310_r;
lastChange = "2019-08-07 21:01:33 +0000";
layers = (
{
layerId = UUID0;
paths = (
{
closed = 1;
nodes = (
"543 0 LINE",
"543 684 LINE",
"78 684 LINE",
"78 365 LINE",
"168 365 LINE",
"168 604 LINE",
"453 604 LINE",
"453 0 LINE"
);
}
);
width = 660;
}
);
},
{
glyphname = u10313_r;
lastChange = "2019-08-07 21:01:33 +0000";
layers = (
{
layerId = UUID0;
paths = (
{
closed = 1;
nodes = (
"478 0 LINE",
"478 704 LINE",
"426 723 LINE",
"181 636 OFFCURVE",
"52 541 OFFCURVE",
"52 422 CURVE SMOOTH",
"52 338 OFFCURVE",
"155 234 OFFCURVE",
"388 143 CURVE",
"388 0 LINE"
);
},
{
closed = 1;
nodes = (
"223 299 OFFCURVE",
"150 371 OFFCURVE",
"150 429 CURVE SMOOTH",
"150 483 OFFCURVE",
"206 549 OFFCURVE",
"388 626 CURVE",
"388 228 LINE"
);
}
);
width = 595;
}
);
},
{
glyphname = u10314_r;
lastChange = "2019-08-07 21:01:33 +0000";
layers = (
{
layerId = UUID0;
paths = (
{
closed = 1;
nodes = (
"429 43 LINE",
"259 97 OFFCURVE",
"169 165 OFFCURVE",
"169 196 CURVE SMOOTH",
"169 282 OFFCURVE",
"436 394 OFFCURVE",
"436 522 CURVE SMOOTH",
"436 596 OFFCURVE",
"309 678 OFFCURVE",
"114 738 CURVE",
"82 661 LINE",
"229 614 OFFCURVE",
"337 554 OFFCURVE",
"337 517 CURVE SMOOTH",
"337 439 OFFCURVE",
"75 319 OFFCURVE",
"75 192 CURVE SMOOTH",
"75 121 OFFCURVE",
"162 48 OFFCURVE",
"397 -35 CURVE"
);
}
);
width = 510;
}
);
},
{
glyphname = u10315_r;
lastChange = "2019-08-07 21:01:33 +0000";
layers = (
{
layerId = UUID0;
paths = (
{
closed = 1;
nodes = (
"358 0 LINE",
"358 402 LINE",
"578 340 LINE",
"604 419 LINE",
"358 488 LINE",
"358 714 LINE",
"268 714 LINE",
"268 513 LINE",
"49 576 LINE",
"23 496 LINE",
"268 424 LINE",
"268 0 LINE"
);
}
);
width = 627;
}
);
},
{
glyphname = u1031B_r;
lastChange = "2019-08-07 21:01:33 +0000";
layers = (
{
layerId = UUID0;
paths = (
{
closed = 1;
nodes = (
"398 0 LINE",
"488 0 LINE",
"488 704 LINE",
"435 723 LINE",
"120 647 OFFCURVE",
"42 556 OFFCURVE",
"42 490 CURVE SMOOTH",
"42 423 OFFCURVE",
"134 347 OFFCURVE",
"398 277 CURVE"
);
},
{
closed = 1;
nodes = (
"398 357 LINE",
"203 411 OFFCURVE",
"145 462 OFFCURVE",
"145 496 CURVE SMOOTH",
"145 527 OFFCURVE",
"194 575 OFFCURVE",
"398 632 CURVE"
);
}
);
width = 605;
}
);
},
{
glyphname = u1031C_r;
lastChange = "2019-08-07 21:01:33 +0000";
layers = (
{
layerId = UUID0;
paths = (
{
closed = 1;
nodes = (
"408 438 LINE",
"130 364 OFFCURVE",
"52 280 OFFCURVE",
"52 214 CURVE SMOOTH",
"52 144 OFFCURVE",
"152 64 OFFCURVE",
"445 -9 CURVE",
"498 10 LINE",
"498 714 LINE",
"408 714 LINE"
);
},
{
closed = 1;
nodes = (
"408 81 LINE",
"213 135 OFFCURVE",
"155 186 OFFCURVE",
"155 220 CURVE SMOOTH",
"155 251 OFFCURVE",
"204 299 OFFCURVE",
"408 356 CURVE"
);
}
);
width = 615;
}
);
},
{
glyphname = u1031D_r;
lastChange = "2019-08-07 21:01:33 +0000";
layers = (
{
layerId = UUID0;
paths = (
{
closed = 1;
nodes = (
"207 0 LINE",
"207 316 LINE",
"447 316 LINE",
"447 395 LINE",
"207 395 LINE",
"207 714 LINE",
"117 714 LINE",
"117 0 LINE"
);
}
);
width = 492;
}
);
},
{
glyphname = u1032D_r;
lastChange = "2019-08-07 21:01:33 +0000";
layers = (
{
layerId = UUID0;
paths = (
{
closed = 1;
nodes = (
"113 -37 LINE",
"532 333 LINE",
"532 410 LINE",
"113 748 LINE",
"59 677 LINE",
"445 370 LINE",
"63 37 LINE"
);
}
);
width = 591;
}
);
},
{
glyphname = u1032E_r;
lastChange = "2019-08-07 21:01:33 +0000";
layers = (
{
layerId = UUID0;
paths = (
{
closed = 1;
nodes = (
"13 389 LINE",
"79 333 LINE",
"307 601 LINE",
"307 0 LINE",
"397 0 LINE",
"397 601 LINE",
"629 329 LINE",
"698 386 LINE",
"397 719 LINE",
"307 719 LINE"
);
}
);
width = 711;
}
);
},
{
glyphname = u1032F_r;
lastChange = "2019-08-07 21:01:33 +0000";
layers = (
{
layerId = UUID0;
paths = (
{
closed = 1;
nodes = (
"127 210 OFFCURVE",
"74 158 OFFCURVE",
"74 119 CURVE SMOOTH",
"74 76 OFFCURVE",
"187 17 OFFCURVE",
"427 -16 CURVE",
"481 8 LINE",
"481 707 LINE",
"430 728 LINE",
"191 695 OFFCURVE",
"74 624 OFFCURVE",
"74 581 CURVE SMOOTH",
"74 542 OFFCURVE",
"127 502 OFFCURVE",
"275 462 CURVE",
"158 435 OFFCURVE",
"88 389 OFFCURVE",
"88 352 CURVE SMOOTH",
"88 316 OFFCURVE",
"158 273 OFFCURVE",
"275 246 CURVE"
);
},
{
closed = 1;
nodes = (
"183 593 OFFCURVE",
"259 621 OFFCURVE",
"395 645 CURVE",
"395 479 LINE",
"229 531 OFFCURVE",
"183 557 OFFCURVE",
"183 575 CURVE SMOOTH"
);
},
{
closed = 1;
nodes = (
"193 378 OFFCURVE",
"309 420 OFFCURVE",
"395 441 CURVE",
"395 264 LINE",
"309 285 OFFCURVE",
"193 327 OFFCURVE",
"193 352 CURVE SMOOTH"
);
},
{
closed = 1;
nodes = (
"261 85 OFFCURVE",
"183 112 OFFCURVE",
"183 130 CURVE SMOOTH",
"183 148 OFFCURVE",
"229 182 OFFCURVE",
"395 228 CURVE",
"395 61 LINE"
);
}
);
width = 598;
}
);
},
{
glyphname = u1032D;
lastChange = "2019-08-07 21:01:33 +0000";
layers = (
{
layerId = UUID0;
paths = (
{
closed = 1;
nodes = (
"125 370 LINE",
"511 677 LINE",
"457 748 LINE",
"38 410 LINE",
"38 333 LINE",
"457 -37 LINE",
"507 37 LINE"
);
}
);
width = 570;
}
);
unicode = 1032D;
},
{
glyphname = u1032E;
lastChange = "2019-08-07 21:01:33 +0000";
layers = (
{
layerId = UUID0;
paths = (
{
closed = 1;
nodes = (
"314 719 LINE",
"13 386 LINE",
"82 329 LINE",
"314 601 LINE",
"314 0 LINE",
"404 0 LINE",
"404 601 LINE",
"632 333 LINE",
"698 389 LINE",
"404 719 LINE"
);
}
);
width = 711;
}
);
unicode = 1032E;
},
{
glyphname = u1032F;
lastChange = "2019-08-07 21:01:33 +0000";
layers = (
{
layerId = UUID0;
paths = (
{
closed = 1;
nodes = (
"440 273 OFFCURVE",
"510 316 OFFCURVE",
"510 352 CURVE SMOOTH",
"510 389 OFFCURVE",
"440 435 OFFCURVE",
"323 462 CURVE",
"471 502 OFFCURVE",
"524 542 OFFCURVE",
"524 581 CURVE SMOOTH",
"524 624 OFFCURVE",
"407 695 OFFCURVE",
"168 728 CURVE",
"117 707 LINE",
"117 8 LINE",
"171 -16 LINE",
"411 17 OFFCURVE",
"524 76 OFFCURVE",
"524 119 CURVE SMOOTH",
"524 158 OFFCURVE",
"471 210 OFFCURVE",
"323 246 CURVE"
);
},
{
closed = 1;
nodes = (
"415 557 OFFCURVE",
"369 531 OFFCURVE",
"203 479 CURVE",
"203 645 LINE",
"339 621 OFFCURVE",
"415 593 OFFCURVE",
"415 575 CURVE SMOOTH"
);
},
{
closed = 1;
nodes = (
"405 327 OFFCURVE",
"289 285 OFFCURVE",
"203 264 CURVE",
"203 441 LINE",
"289 420 OFFCURVE",
"405 378 OFFCURVE",
"405 352 CURVE SMOOTH"
);
},
{
closed = 1;
nodes = (
"203 228 LINE",
"369 182 OFFCURVE",
"415 148 OFFCURVE",
"415 130 CURVE SMOOTH",
"415 112 OFFCURVE",
"337 85 OFFCURVE",
"203 61 CURVE"
);
}
